<?xml version="1.0" standalone="no"?><!DOCTYPE svg PUBLIC "-//W3C//DTD SVG 1.1//EN" "http://www.w3.org/Graphics/SVG/1.1/DTD/svg11.dtd"><svg t="1718285954991" class="icon" viewBox="0 0 1024 1024" version="1.1" xmlns="http://www.w3.org/2000/svg" p-id="5042" data-spm-anchor-id="a313x.search_index.0.i8.26c13a8163DZul" xmlns:xlink="http://www.w3.org/1999/xlink" width="200" height="200"><path d="M828.59008 944.9472L526.3872 739.14368a16.5888 16.5888 0 0 0-18.54464 0L205.64992 944.9472V166.93248c0-40.192 33.4336-72.89856 74.52672-72.89856H754.0736c41.09312 0 74.51648 32.70656 74.51648 72.89856V944.9472zM517.12 707.328c8.98048 0 17.95072 2.6112 25.61024 7.82336L799.56992 890.0608V166.93248c0-24.18688-20.40832-43.86816-45.49632-43.86816H280.1664c-25.088 0-45.49632 19.68128-45.49632 43.86816V890.0608l256.83968-174.91968a45.52704 45.52704 0 0 1 25.61024-7.81312z" p-id="5043" fill="#4899a3"></path><path d="M675.84 408.45312H358.4a15.36 15.36 0 0 1 0-30.72h317.44a15.36 15.36 0 0 1 0 30.72z" p-id="5044" fill="#4899a3"></path><path d="M517.12 567.17312a15.36 15.36 0 0 1-15.36-15.36v-317.44a15.36 15.36 0 0 1 30.72 0v317.44a15.36 15.36 0 0 1-15.36 15.36z" p-id="5045" fill="#4899a3"></path></svg>