<?xml version="1.0" standalone="no"?><!DOCTYPE svg PUBLIC "-//W3C//DTD SVG 1.1//EN" "http://www.w3.org/Graphics/SVG/1.1/DTD/svg11.dtd"><svg class="icon" width="200px" height="200.00px" viewBox="0 0 1024 1024" version="1.1" xmlns="http://www.w3.org/2000/svg"><path fill="#beecdb" d="M594.8 266.4H226.6l73.5-73.5-35.4-35.4-134.3 134.4 134.4 134.4 35.4-35.4-74.5-74.5h369c33.7 0.1 66.3 6.8 96.9 19.9 29.7 12.6 56.3 30.7 79.2 53.6 22.9 23 40.8 49.7 53.4 79.4 13 30.7 19.5 63.4 19.5 97.1 0 33.7-6.6 66.3-19.5 97.1-12.5 29.7-30.5 56.4-53.4 79.4-22.9 23-49.5 41-79.2 53.6-30.7 13.1-63.3 19.8-96.9 19.9H134.2v50h460.6c165.1-0.7 298.8-134.7 298.8-300s-133.7-299.3-298.8-300z"  /></svg>