<?xml version="1.0" standalone="no"?>
<!DOCTYPE svg PUBLIC "-//W3C//DTD SVG 1.1//EN" "http://www.w3.org/Graphics/SVG/1.1/DTD/svg11.dtd">
<svg class="icon" width="200px" height="200.00px" viewBox="0 0 1024 1024" version="1.1" xmlns="http://www.w3.org/2000/svg">
    <path d="M137.90246 0.00041a48.573421 48.573421 0 0 0-35.589106 15.293433A53.964778 53.964778 0 0 0 87.0404 50.934149V968.345622a48.706541 48.706541 0 0 0 15.272954 35.640306 49.97118 49.97118 0 0 0 35.589106 15.293434h746.336982a48.639981 48.639981 0 0 0 35.589105-15.293434 50.37054 50.37054 0 0 0 15.272954-35.640306V288.717094L646.727857 0.00041H137.90246z" fill="currentColor" />
    <path d="M935.101501 288.717094h-237.445025c-27.822069-0.6656-50.22718-23.075831-50.928619-50.93374V0.00041l288.373644 288.716684z" fill="#b3f2eb" />
    <path d="M503.434474 649.64111c0 79.728608 64.542694 144.358342 144.153542 144.358342 79.615968 0 144.153542-64.629734 144.153543-144.358342 0-79.723488-64.537574-144.358342-144.153543-144.358343s-144.153542 64.634854-144.153542 144.358343z" fill="#9CE0C3" />
    <path d="M367.713568 598.70737c-0.0256 58.419177 35.092466 111.103956 88.985565 133.478347a144.076742 144.076742 0 0 0 157.189057-31.262708 144.573382 144.573382 0 0 0 31.293427-157.404097c-22.318071-53.975018-74.90557-89.169884-133.247947-89.169884a144.051142 144.051142 0 0 0-101.974999 42.260463 144.460742 144.460742 0 0 0-42.245103 102.097879z" fill="#CDF0E1" />
    <path d="M232.258902 539.264194c0 79.723488 64.537574 144.358342 144.153543 144.358342s144.153542-64.634854 144.153542-144.358342c0-79.728608-64.537574-144.358342-144.153542-144.358342a143.984582 143.984582 0 0 0-101.95452 42.260463 144.394182 144.394182 0 0 0-42.199023 102.092759z" fill="#FFFFFF" />
</svg>